<svg width="343" height="385" viewBox="0 0 343 385" fill="none" xmlns="http://www.w3.org/2000/svg">
<path d="M279.411 284.587V190.407L262.146 199.745V276.216L279.411 284.587Z" fill="white"/>
<path d="M183.37 351.56L199.557 343.189V209.243L299.915 153.781L303.152 284.587L319.339 276.216V123.434L183.37 199.745V351.56Z" fill="white"/>
<path fill-rule="evenodd" clip-rule="evenodd" d="M23.6614 276.216L158.551 351.56V199.745L23.6614 123.434V276.216ZM141.285 323.306L40.9272 265.751V153.781L141.285 209.243V323.306Z" fill="white"/>
<path d="M34.4525 103.552L170.421 178.896L306.389 103.552L170.421 26.1148L34.4525 103.552Z" fill="white"/>
<path fill-rule="evenodd" clip-rule="evenodd" d="M171.5 384L223.297 356.792V220.754L238.405 212.584L262.146 199.745L279.411 190.407V284.587L262.146 276.216V199.745L238.405 212.584V289.82L292.361 317.027L342 289.82V95.1803L170.421 1L1 95.1803V289.82L171.5 384ZM158.551 351.56L23.6614 276.216V123.434L158.551 199.745V351.56ZM199.557 343.189L183.37 351.56V199.745L319.339 123.434V276.216L303.152 284.587L299.915 153.781L199.557 209.243V343.189ZM170.421 178.896L34.4525 103.552L170.421 26.1148L306.389 103.552L170.421 178.896Z" fill="#7F1C1D"/>
<path d="M40.9272 265.751L141.285 323.306V209.243L40.9272 153.781V265.751Z" fill="#7F1C1D"/>
<path d="M262.146 199.745L279.411 190.407V284.587L262.146 276.216V199.745ZM262.146 199.745L238.405 212.584M238.405 212.584L223.297 220.754V356.792L171.5 384L1 289.82V95.1803L170.421 1L342 95.1803V289.82L292.361 317.027L238.405 289.82V212.584ZM23.6614 276.216L158.551 351.56V199.745L23.6614 123.434V276.216ZM183.37 351.56L199.557 343.189V209.243L299.915 153.781L303.152 284.587L319.339 276.216V123.434L183.37 199.745V351.56ZM40.9272 265.751L141.285 323.306V209.243L40.9272 153.781V265.751ZM34.4525 103.552L170.421 178.896L306.389 103.552L170.421 26.1148L34.4525 103.552Z" stroke="white"/>
</svg>
